<svg 
 xmlns="http://www.w3.org/2000/svg"
 xmlns:xlink="http://www.w3.org/1999/xlink"
 width="172px" height="239px" viewBox='0 0 172 239'>
<path fill-rule="evenodd"  fill="#000"
 d="M169.000,239.000 L169.000,232.000 L164.1000,232.000 L164.1000,239.000 L7.000,239.000 L7.000,232.000 L2.1000,232.000 L2.1000,239.000 L0.000,239.000 L0.000,0.000 L2.1000,0.000 L2.1000,7.000 L7.000,7.000 L7.000,0.000 L164.1000,0.000 L164.1000,7.000 L169.000,7.000 L169.000,0.000 L171.1000,0.000 L171.1000,239.000 L169.000,239.000 ZM7.000,17.000 L2.1000,17.000 L2.1000,31.000 L7.000,31.000 L7.000,17.000 ZM7.000,40.1000 L2.1000,40.1000 L2.1000,54.1000 L7.000,54.1000 L7.000,40.1000 ZM7.000,65.000 L2.1000,65.000 L2.1000,79.000 L7.000,79.000 L7.000,65.000 ZM7.000,88.1000 L2.1000,88.1000 L2.1000,102.1000 L7.000,102.1000 L7.000,88.1000 ZM7.000,112.000 L2.1000,112.000 L2.1000,125.1000 L7.000,125.1000 L7.000,112.000 ZM7.000,135.1000 L2.1000,135.1000 L2.1000,149.1000 L7.000,149.1000 L7.000,135.1000 ZM7.000,160.000 L2.1000,160.000 L2.1000,174.000 L7.000,174.000 L7.000,160.000 ZM7.000,183.1000 L2.1000,183.1000 L2.1000,197.1000 L7.000,197.1000 L7.000,183.1000 ZM7.000,207.1000 L2.1000,207.1000 L2.1000,221.1000 L7.000,221.1000 L7.000,207.1000 ZM169.000,17.000 L164.1000,17.000 L164.1000,31.000 L169.000,31.000 L169.000,17.000 ZM169.000,40.1000 L164.1000,40.1000 L164.1000,54.1000 L169.000,54.1000 L169.000,40.1000 ZM169.000,65.000 L164.1000,65.000 L164.1000,79.000 L169.000,79.000 L169.000,65.000 ZM169.000,88.1000 L164.1000,88.1000 L164.1000,102.1000 L169.000,102.1000 L169.000,88.1000 ZM169.000,112.000 L164.1000,112.000 L164.1000,125.1000 L169.000,125.1000 L169.000,112.000 ZM169.000,135.1000 L164.1000,135.1000 L164.1000,149.1000 L169.000,149.1000 L169.000,135.1000 ZM169.000,160.000 L164.1000,160.000 L164.1000,174.000 L169.000,174.000 L169.000,160.000 ZM169.000,183.1000 L164.1000,183.1000 L164.1000,197.1000 L169.000,197.1000 L169.000,183.1000 ZM169.000,207.1000 L164.1000,207.1000 L164.1000,221.1000 L169.000,221.1000 L169.000,207.1000 Z"/>
<path fill-rule="evenodd"  fill="#fff"
 d="M11.000,7.000 L160.1000,7.000 L160.1000,232.000 L11.000,232.000 L11.000,7.000 Z"/>
</svg>