<svg xmlns="http://www.w3.org/2000/svg" width="200" height="200" viewBox="0 0 200 200"><circle cx="100" cy="100" r="80" fill="var(--fill, #f5f5f5)"/><circle cx="100" cy="100" r="40" fill="var(--fill2, #ffffff)"/><path fill="var(--fill3, #3498db)" d="M100 20a80 80 0 0 1 78 80h-40a40 40 0 0 0-38-40z"/><path fill="var(--fill4, #e74c3c)" d="M178 100a80 80 0 0 1-78 80v-40a40 40 0 0 0 38-40z"/><path fill="var(--fill5, #2ecc71)" d="M100 180a80 80 0 0 1-78-80h40a40 40 0 0 0 38 40z"/><path fill="var(--fill6, #f39c12)" d="M22 100a80 80 0 0 1 78-80v40a40 40 0 0 0-38 40z"/><circle cx="100" cy="100" r="80" fill="none" stroke="var(--stroke, #dddddd)" stroke-width="1"/><circle cx="100" cy="100" r="40" fill="none" stroke="var(--stroke, #dddddd)" stroke-width="1"/></svg>