<svg xmlns="http://www.w3.org/2000/svg" width="172" height="239" viewBox="0 0 172 239"><path fill="var(--fill, #000)" fill-rule="evenodd" d="M169 239v-7h-4.9v7H7v-7H2.1v7H0V0h2.1v7H7V0h157.1v7h4.9V0h2.1v239zM7 17H2.1v14H7zm0 23.1H2.1v14H7zM7 65H2.1v14H7zm0 23.1H2.1v14H7zM7 112H2.1v13.1H7zm0 23.1H2.1v14H7zM7 160H2.1v14H7zm0 23.1H2.1v14H7zm0 24H2.1v14H7zM169 17h-4.9v14h4.9zm0 23.1h-4.9v14h4.9zm0 24.9h-4.9v14h4.9zm0 23.1h-4.9v14h4.9zm0 23.9h-4.9v13.1h4.9zm0 23.1h-4.9v14h4.9zm0 24.9h-4.9v14h4.9zm0 23.1h-4.9v14h4.9zm0 24h-4.9v14h4.9z"/><path fill="var(--fill2, #fff)" fill-rule="evenodd" d="M11 7h149.1v225H11z"/></svg>